<svg width="32" height="32" viewBox="0 0 32 32" fill="none" xmlns="http://www.w3.org/2000/svg">
  <defs>
    <linearGradient id="gradient" x1="0%" y1="0%" x2="100%" y2="100%">
      <stop offset="0%" style="stop-color:#8B5CF6;stop-opacity:1" />
      <stop offset="100%" style="stop-color:#06B6D4;stop-opacity:1" />
    </linearGradient>
  </defs>
  
  <!-- Background circle -->
  <circle cx="16" cy="16" r="15" fill="url(#gradient)" stroke="#1F2937" stroke-width="2"/>
  
  <!-- Soul/persona symbol - stylized face/mask -->
  <path d="M10 12c0-1.1.9-2 2-2s2 .9 2 2-.9 2-2 2-2-.9-2-2z" fill="white" opacity="0.9"/>
  <path d="M18 12c0-1.1.9-2 2-2s2 .9 2 2-.9 2-2 2-2-.9-2-2z" fill="white" opacity="0.9"/>
  
  <!-- Smile/connection -->
  <path d="M11 19c1.5 2 3.5 3 5 3s3.5-1 5-3" stroke="white" stroke-width="2" stroke-linecap="round" fill="none" opacity="0.9"/>
  
  <!-- Neural network dots -->
  <circle cx="8" cy="8" r="1.5" fill="white" opacity="0.6"/>
  <circle cx="24" cy="8" r="1.5" fill="white" opacity="0.6"/>
  <circle cx="8" cy="24" r="1.5" fill="white" opacity="0.6"/>
  <circle cx="24" cy="24" r="1.5" fill="white" opacity="0.6"/>
  
  <!-- Connection lines -->
  <line x1="8" y1="8" x2="12" y2="12" stroke="white" stroke-width="1" opacity="0.4"/>
  <line x1="24" y1="8" x2="20" y2="12" stroke="white" stroke-width="1" opacity="0.4"/>
</svg>
